<?xml version="1.0" standalone="no"?>
<!DOCTYPE svg PUBLIC "-//W3C//DTD SVG 20010904//EN"
 "http://www.w3.org/TR/2001/REC-SVG-20010904/DTD/svg10.dtd">
<svg version="1.0" xmlns="http://www.w3.org/2000/svg"
 width="192.000000pt" height="192.000000pt" viewBox="0 0 192.000000 192.000000"
 preserveAspectRatio="xMidYMid meet">
<metadata>
Created by potrace 1.11, written by Peter Selinger 2001-2013
</metadata>
<g transform="translate(0.000000,192.000000) scale(0.100000,-0.100000)"
fill="#000000" stroke="none">
<path d="M780 1903 c-347 -70 -619 -309 -729 -639 -39 -119 -42 -138 -46 -288
-4 -210 39 -364 154 -541 46 -71 168 -201 231 -246 240 -173 506 -223 820
-153 19 4 65 19 101 34 379 153 616 511 604 912 -2 62 -6 127 -10 143 -21 99
-29 125 -52 185 -76 190 -208 350 -382 462 -67 43 -198 102 -256 115 -158 35
-311 41 -435 16z m322 -155 c74 -14 179 -52 246 -89 53 -30 174 -123 197 -152
39 -47 82 -104 90 -118 40 -67 68 -130 91 -206 37 -121 39 -309 6 -426 -27
-94 -76 -196 -130 -269 -47 -65 -169 -179 -214 -202 -18 -9 -51 -27 -73 -39
-47 -27 -160 -65 -218 -74 -92 -15 -259 -7 -341 16 -226 63 -401 204 -508 411
-119 228 -113 523 14 750 110 197 312 346 533 394 78 17 226 18 307 4z"/>
<path d="M597 1360 l-197 -158 200 -161 200 -160 0 119 c0 89 3 120 13 120 6
1 168 1 360 1 l347 0 0 79 0 80 -37 0 c-21 1 -183 1 -360 1 l-322 0 -3 119 -3
118 -198 -158z"/>
<path d="M1118 923 l-3 -118 -280 -2 c-154 -1 -315 -2 -357 -2 l-78 -1 0 -79
0 -80 273 0 c149 0 311 0 360 -1 l87 0 0 -115 c0 -63 2 -115 5 -115 13 0 385
305 385 314 0 6 -10 17 -22 25 -11 7 -80 61 -152 119 -72 58 -150 120 -173
139 l-42 34 -3 -118z"/>
</g>
</svg>
